P3
3 2
255
232 19 158
38 175 197
114 68 188
109 120 80
102 47 102
143 142 79
