P1
100 100
1110000011010011110011110110011001011111101011010111000000010010111001011110101110111110100110000100
1110101100111110010001001010000100111011010100011000110110101010000000001000011111011101100011100110
0100011111111001011110101101010000111111011010001100011111101110110011110001000000010101011111111010
1000000100111000110011110011101110000011001010001110100011111011111111110101000011100101001010000100
1011011001011001010000010001011110001101010100011100011100101100111101110010110110111100000000010101
1011011100011011011111000101111000110011101111001011000010010010000111001001010000110110001110100111
1111101111010101001001101011110010011110111110010111110110001001011011101100011011100110100110110010
0001101011100100111111001110011101010110100100000111101011100001110010110010100000000111111110011110
1110010011101100100000000011011001011111110010001000001100010111010000110010101001111011101110110011
0001010100011010110000010101010000001010110100100111101111000010011010110101111100110000111001010110
1100010000011100111010010000110100100000000111110110000100101110011101101000000110011010001001001011
1000111010000010101101110101011111100001100100001000100101010000001001011011101111100000011011001101
1001011110010101101011111101101100100110101000010101111000110010001110001010011000110101001100011110
1011110001110000001111111100110101010101001100100111000010101100000110011001011011111000010110010010
0001011000111010100001110101110101101101110001100111110101001001001101010000101000111110011110101100
0110100101000111010011001101011110011000110011100101010110000110101010011101011001000111101101110010
1111000001110001011001011101110110100111011000110100101000000011110001110010111101111111100011001001
1111101000011111110000111011101000100011001111100011011111010111100010011111110010011010001110000100
0010001100000100011011111111001010000110100000011011101001100000111111001101000011111000111100000100
1010001110001010100010001100111000010010111011111100111111110011010110001001101011010001111100011100
1110100000010011001100101111101100101010101110010001100011100110011111011100010011110001010111011100
0011111001001011101101011001001100111010100000100101110100010010101011001111010001101010011100000111
0100011110001110001101110010110000100010010000100010010000011101000001101010101111110101111110010111
0100101101100111111010000001111101001111101110101110100000110100011001101011100101101111001110010001
1000011001010111001001000110011000111101010010011100011111100110000110110011111111111010111001100100
0100000000111111011110010101001011001100011110110111101100111010100111101111111010111100010000110000
0101111100101111111000011100100101111101111111001111101000001101010010101011000000101000101011000111
0110111101001110010111100100101111011010110000110000100011011001111001011011111100000010011111000010
0010100000111001011011001001101101110101000001110110101110010110101000110101001100110101110000101111
0000101001100010110010011111010011111101011010101111010110011011100010010111010010011100110000011001
1101111101001101001000010001100110001100000110101000101100010001100011110011011101001010110110110101
0111010100111110110001100000011111101101000011001101100010000001011111001010001111000101111110110010
1100110111100111001001011101010110100111010110110000010010010011011001011101010110101001000100011010
1001000111100000001111000100001100010011110000001111000100111100010011100111111000111110100000000000
1001000111110100001000001110001000011011001011001000001111110001010001001011011011100100100011011000
0001000011111111111110100101001110100011111101011110100000111100010100111000011010110110001110111111
0011001000011011010010111111011011011101000001100010111111011100110101110111000001000010111011111100
1010111101100101001110001110100000001010010110010010001011010100011111100110101111111100000111110111
1011111101111100011100010110000010101011110011100101010000011111001101101100110010010100110000001110
0100100000110011111100000011101111100110001111011110011011000001000000110110110100110010101010010010
1010000100010110000010111111001100111100010100111110010110110011001110000101011010100110010100111111
1100100111010101101011101110100110001010000101110010011111000111111000100101100011111110011110110110
1011011001100000100011000101000001011100011001010101101110101111100110111000001110010011000010110110
1101111100010011010101001011101100001100100111111010101100110011010000110101111111111101011110101110
0010100001100010110111010000110011001000010100000011010110101101010110010011011001110111111011100010
0011111000100110000000011101011111111111001110011011110100100010111000000000010000011011100010100010
0111100001010010001000111111111110100110111110100110111010010011011101001011110110111011000110000011
0100100100101000000011001000010110100011110000100111000000010101001010100110010110101101110100011011
1011100001011111001000101111011110100100101100001111100001111001101110011111111011101001111000011011
0000001101000111111000110011110011101101101100010101110011100000000010101100101000010011010111110111
0011110001110100100010001001111101110001111010101111000110110011101110101000100101111011100110111001
0011100011010001010010111111011101100100010111010011100100111010110000000110010010010101010000001011
0111101000101101010100100001011010101011011011100011001000011100101110110001011011110000100010110011
0011111000011111100101100000110110000011001000010010101000000011001001001000110100111000100011111000
0111011100011111000000101001110000001001111011100001000111110111111110101101101011111100101111011000
1111010110001110001110110011000111101111110010000011010100111000000011011100001000110000001111011001
1010001100110000110000101100001111010101111111111111001000111010000001101110000010000111101001111011
0101011000110100011100001001101010001100001110100001001101111111100110110111100010110001111100010110
1001010001101011100000010001001000111000100001110000110001100111010000101110101110111100100100101001
0000000010000000001100011011111111000111001111000111110100100100011101110010110000010111111000111000
1111000111111011000101011000001001110110011101000011000100011010111101111011110100000001011010100110
0110010000110010111100110110000101100100001110110000010111011011000110000110011111001001011010011101
1011100110100111111001100010011010101101111110010100010101111010101111000100100010010101000100011110
1010111010010100010010100110101111110000010011011011000110110001101011010101110000001110110100100110
1010001001110101011100110010010000001101110010010110110001100011001001010100110010000000111110001111
0011011011111100001010111110010010011111110000001011110100000101101100010101101101101110000011111111
1101000010011000101101101100101000110010101100110011011101110011000010000110110011000101101001101110
1101101111101001001011111110000101111110010100101110010110001011110001110101100000111011100000000000
0111000110100111001100101100101100110111000100000011010010111001101111010000111001010111110110111011
1001100100101001110001110011100111010000001101000011101101010111010000110111001011110000100111100110
0100111001111110000101010110010011111011101111111011110001101010011000110001100110100001111010111111
0001001100000010001010011001010111110110010111111100111101000111100111100101110011010010101100001100
1110110011010100101101101100110000101010101110111111001001001010000010001010111011001100010100110101
1111111101100011010100110011000011001000000001011010000100110100101011101010000100011100000100011111
1110011010010010110000011001110100000000010001010100001110011101010110110000010000100000011011111110
0001010000111101010100000100110010011001101010110000110111000000000010001101100000100011000100010110
1001001001101111101111000111111110011111001110101100110010100001111001111010100000010011010001101011
1110100001010001000110100100001111111110101100010001110011010011110100010100010100010111000100010010
1010000101001000000101000010010110100010100101001001010000111000001101101100001100011101001010101111
1101001100100011110000111000001110000010001010111111000001101001111110110101111010010100001101110011
1101000111011100011101001100000110110001001110000111100010101001110101000000011010011110101101111000
0010110101011010111011100010110001111111111110011110000111110001101011010000010111110110010101111011
1101010111010101000010010001101110010010100110010110111010010100000111001101101101111111100111111100
1011100010000111010010001100111100000111101000111001110011100101101101001001111101110010011001011001
0010100011110000100101111111011000111000100110111001110101111011000001100011110110010011001001101011
1101111110011010010011010111101001111010001100001000100100111011000111111010000011001110101001111011
0011100001010000001110000110100101011001000101100011000111001010010000001111010111011111111100110110
0001001011101010000100000011101100100010011111100111100111001111010110000010000100010000000111110100
1011001111000100100100000011101100101111111011001000101100111110000001000110111100110001011011101110
0110010000101101001010110011010111110011100101000010101001011111000111010000000001011101001000010101
0110111111110110111000100011010100101110000011100110001111101111100011100100010111001100001001011000
0101111110100101010101010101000110101001001110011001000100010000101111101010100111110011010110110010
1000011101001011111110111010001100100101000001100000010000011111001110111001000100010110001010000101
1101010010101000011110110110010010101010010000011110101111100001100010100000011100010010100010101011
1101001001000010100010001001001010011110110100011110100100001010100110010000101000001111101101010110
1011110011011110110101101100101100100011101010111110011110010010110010000010001111001110111100100100
1011111100110001000010111111100000111111110000001001110100010100011000110010011011111011000101100101
1101111000001011100000111111011011011000000010111110110101000011010100110101100110100011001101000111
0001000110001100010000100010001001101000100111100010011001101110100110011101110000000111001100110001
0110011101010101111111000100101111001101111101110101000000101110100001001001011100111011110101101111
